<mxfile host="Electron" modified="2025-08-12T00:11:03.579Z" agent="Mozilla/5.0 (Windows NT 10.0; Win64; x64) AppleWebKit/537.36 (KHTML, like Gecko) draw.io/21.6.8 Chrome/114.0.5735.289 Electron/25.5.0 Safari/537.36" etag="GdwIYPSERq1sa2rWuRqa" version="21.6.8" type="device">
  <diagram name="Page-1" id="a8X8b88KxLshuGErkxD6">
    <mxGraphModel dx="1036" dy="702" grid="1" gridSize="10" guides="1" tooltips="1" connect="1" arrows="1" fold="1" page="1" pageScale="1" pageWidth="850" pageHeight="1100" math="0" shadow="0">
      <root>
        <mxCell id="0" />
        <mxCell id="1" parent="0" />
        <mxCell id="EOTnqjHbZAOLrOmfvpdX-1" value="" style="shape=rectangle;rounded=1;arcSize=50;whiteSpace=wrap;html=1;fillColor=#d5e8d4;strokeColor=#82b366;labelBackgroundColor=none;" vertex="1" parent="1">
          <mxGeometry x="100" y="120" width="30" height="100" as="geometry" />
        </mxCell>
        <mxCell id="EOTnqjHbZAOLrOmfvpdX-2" value="" style="shape=rectangle;rounded=1;arcSize=50;whiteSpace=wrap;html=1;fillColor=#e1d5e7;strokeColor=#9673a6;labelBackgroundColor=none;" vertex="1" parent="1">
          <mxGeometry x="200" y="120" width="30" height="100" as="geometry" />
        </mxCell>
        <mxCell id="EOTnqjHbZAOLrOmfvpdX-3" value="+" style="text;html=1;strokeColor=none;fillColor=none;align=center;verticalAlign=middle;whiteSpace=wrap;rounded=0;fontColor=#393C56;fontSize=24;labelBackgroundColor=none;" vertex="1" parent="1">
          <mxGeometry x="155" y="155" width="20" height="30" as="geometry" />
        </mxCell>
        <mxCell id="EOTnqjHbZAOLrOmfvpdX-4" value="" style="endArrow=none;html=1;rounded=0;strokeColor=#E07A5F;strokeWidth=1;labelBackgroundColor=none;fontColor=default;" edge="1" parent="1">
          <mxGeometry width="50" height="50" relative="1" as="geometry">
            <mxPoint x="115" y="220" as="sourcePoint" />
            <mxPoint x="115" y="240" as="targetPoint" />
          </mxGeometry>
        </mxCell>
        <mxCell id="EOTnqjHbZAOLrOmfvpdX-5" value="input&lt;br&gt;word" style="text;html=1;strokeColor=none;fillColor=none;align=center;verticalAlign=middle;whiteSpace=wrap;rounded=0;fontColor=#393C56;fontSize=14;labelBackgroundColor=none;" vertex="1" parent="1">
          <mxGeometry x="85" y="245" width="60" height="40" as="geometry" />
        </mxCell>
        <mxCell id="EOTnqjHbZAOLrOmfvpdX-6" value="" style="endArrow=none;html=1;rounded=0;strokeColor=#E07A5F;strokeWidth=1;labelBackgroundColor=none;fontColor=default;" edge="1" parent="1">
          <mxGeometry width="50" height="50" relative="1" as="geometry">
            <mxPoint x="215" y="220" as="sourcePoint" />
            <mxPoint x="215" y="240" as="targetPoint" />
          </mxGeometry>
        </mxCell>
        <mxCell id="EOTnqjHbZAOLrOmfvpdX-7" value="positional&lt;br&gt;encoding" style="text;html=1;strokeColor=none;fillColor=none;align=center;verticalAlign=middle;whiteSpace=wrap;rounded=0;fontColor=#393C56;fontSize=14;labelBackgroundColor=none;" vertex="1" parent="1">
          <mxGeometry x="175" y="245" width="80" height="40" as="geometry" />
        </mxCell>
        <mxCell id="EOTnqjHbZAOLrOmfvpdX-8" value="" style="endArrow=classic;html=1;rounded=0;strokeColor=#E07A5F;strokeWidth=1;labelBackgroundColor=none;fontColor=default;" edge="1" parent="1">
          <mxGeometry width="50" height="50" relative="1" as="geometry">
            <mxPoint x="250" y="169.5" as="sourcePoint" />
            <mxPoint x="330" y="169.5" as="targetPoint" />
          </mxGeometry>
        </mxCell>
        <mxCell id="EOTnqjHbZAOLrOmfvpdX-9" value="" style="shape=rectangle;whiteSpace=wrap;html=1;fillColor=#F2CC8F;strokeColor=#E07A5F;strokeWidth=2;labelBackgroundColor=none;fontColor=#393C56;" vertex="1" parent="1">
          <mxGeometry x="345" y="165" width="150" height="50" as="geometry" />
        </mxCell>
        <mxCell id="EOTnqjHbZAOLrOmfvpdX-10" value="" style="shape=rectangle;whiteSpace=wrap;html=1;fillColor=#F2CC8F;strokeColor=#E07A5F;strokeWidth=2;labelBackgroundColor=none;fontColor=#393C56;" vertex="1" parent="1">
          <mxGeometry x="340" y="155" width="150" height="50" as="geometry" />
        </mxCell>
        <mxCell id="EOTnqjHbZAOLrOmfvpdX-11" value="Self-Attention" style="shape=rectangle;whiteSpace=wrap;html=1;fillColor=#F2CC8F;strokeColor=#E07A5F;strokeWidth=2;fontColor=#393C56;fontSize=14;labelBackgroundColor=none;" vertex="1" parent="1">
          <mxGeometry x="335" y="145" width="150" height="50" as="geometry" />
        </mxCell>
        <mxCell id="EOTnqjHbZAOLrOmfvpdX-12" value="" style="endArrow=classic;html=1;rounded=0;strokeColor=#E07A5F;strokeWidth=1;labelBackgroundColor=none;fontColor=default;" edge="1" parent="1">
          <mxGeometry width="50" height="50" relative="1" as="geometry">
            <mxPoint x="500" y="169.5" as="sourcePoint" />
            <mxPoint x="560" y="169.5" as="targetPoint" />
          </mxGeometry>
        </mxCell>
        <mxCell id="EOTnqjHbZAOLrOmfvpdX-13" value="Neural Network" style="shape=rectangle;whiteSpace=wrap;html=1;fillColor=#F2CC8F;strokeColor=#E07A5F;strokeWidth=2;fontColor=#393C56;fontSize=14;labelBackgroundColor=none;" vertex="1" parent="1">
          <mxGeometry x="570" y="145" width="150" height="50" as="geometry" />
        </mxCell>
        <mxCell id="EOTnqjHbZAOLrOmfvpdX-14" value="" style="endArrow=classic;html=1;rounded=0;strokeColor=#E07A5F;strokeWidth=1;labelBackgroundColor=none;fontColor=default;" edge="1" parent="1">
          <mxGeometry width="50" height="50" relative="1" as="geometry">
            <mxPoint x="730" y="169.5" as="sourcePoint" />
            <mxPoint x="790" y="169.5" as="targetPoint" />
          </mxGeometry>
        </mxCell>
        <mxCell id="EOTnqjHbZAOLrOmfvpdX-15" value="" style="shape=rectangle;rounded=1;arcSize=50;whiteSpace=wrap;html=1;fillColor=#F2CC8F;strokeColor=none;labelBackgroundColor=none;fontColor=#393C56;" vertex="1" parent="1">
          <mxGeometry x="800" y="120" width="30" height="100" as="geometry" />
        </mxCell>
        <mxCell id="EOTnqjHbZAOLrOmfvpdX-16" value="" style="endArrow=none;html=1;rounded=0;strokeColor=#E07A5F;strokeWidth=1;labelBackgroundColor=none;fontColor=default;" edge="1" parent="1">
          <mxGeometry width="50" height="50" relative="1" as="geometry">
            <mxPoint x="815" y="220" as="sourcePoint" />
            <mxPoint x="815" y="240" as="targetPoint" />
          </mxGeometry>
        </mxCell>
        <mxCell id="EOTnqjHbZAOLrOmfvpdX-17" value="encoded&lt;br&gt;representation" style="text;html=1;strokeColor=none;fillColor=none;align=center;verticalAlign=middle;whiteSpace=wrap;rounded=0;fontColor=#393C56;fontSize=14;labelBackgroundColor=none;" vertex="1" parent="1">
          <mxGeometry x="765" y="245" width="100" height="40" as="geometry" />
        </mxCell>
        <mxCell id="EOTnqjHbZAOLrOmfvpdX-18" value="" style="endArrow=none;html=1;rounded=0;strokeColor=#E07A5F;strokeWidth=1;labelBackgroundColor=none;fontColor=default;" edge="1" parent="1">
          <mxGeometry width="50" height="50" relative="1" as="geometry">
            <mxPoint x="335" y="230" as="sourcePoint" />
            <mxPoint x="720" y="230" as="targetPoint" />
          </mxGeometry>
        </mxCell>
        <mxCell id="EOTnqjHbZAOLrOmfvpdX-19" value="x N" style="text;html=1;strokeColor=none;fillColor=none;align=center;verticalAlign=middle;whiteSpace=wrap;rounded=0;fontColor=#393C56;fontSize=16;labelBackgroundColor=none;" vertex="1" parent="1">
          <mxGeometry x="517.5" y="240" width="60" height="30" as="geometry" />
        </mxCell>
      </root>
    </mxGraphModel>
  </diagram>
</mxfile>
